<svg width="14.000000" height="9.000000" viewBox="0 0 14 9" fill="none" xmlns="http://www.w3.org/2000/svg" xmlns:xlink="http://www.w3.org/1999/xlink">
	<desc>
			Created with Pixso.
	</desc>
	<defs/>
	<path id="Union" d="M4.73 8.01C4.91 8.01 5.08 7.94 5.21 7.8C5.45 7.53 5.43 7.12 5.17 6.88L2.28 4.16L10.35 4.16C11.64 4.16 12.7 5.21 12.7 6.51L12.7 8.29C12.7 8.65 12.99 8.94 13.35 8.94C13.7 8.94 14 8.65 14 8.29L14 6.51C14 4.5 12.36 2.86 10.35 2.86L2.27 2.86L2.27 2.85L5.13 0.43C5.4 0.19 5.41 -0.22 5.17 -0.49C4.93 -0.75 4.52 -0.77 4.25 -0.53L0.23 2.98C-0.08 3.26 -0.08 3.74 0.23 4.02L4.29 7.84C4.42 7.96 4.57 8.01 4.73 8.01Z" fill="#505050" fill-opacity="1.000000" fill-rule="nonzero"/>
</svg>
