<svg width="16.000000" height="19.000000" viewBox="0 0 16 19" fill="none" xmlns="http://www.w3.org/2000/svg" xmlns:xlink="http://www.w3.org/1999/xlink">
	<desc>
			Created with Pixso.
	</desc>
	<defs/>
	<path id="Union" d="M4.13 -0.05C4.49 -0.05 4.79 0.24 4.79 0.6L4.79 1.98L7.35 1.98L7.35 0.6C7.35 0.24 7.64 -0.05 8 -0.05C8.35 -0.05 8.64 0.24 8.64 0.6L8.64 1.98L11.2 1.98L11.2 0.6C11.2 0.24 11.49 -0.05 11.85 -0.05C12.2 -0.05 12.5 0.24 12.5 0.6L12.5 1.98L13 1.98C14.64 1.98 16 3.33 16 4.98L16 15.12C16 16.78 14.65 18.12 13 18.12L3 18.12C1.34 18.12 0 16.78 0 15.12L0 4.98C0 3.33 1.34 1.98 3 1.98L3.48 1.98L3.48 0.6C3.48 0.24 3.78 -0.05 4.13 -0.05ZM3.48 4.85L3.48 3.29L3 3.29C2.06 3.29 1.3 4.04 1.3 4.98L1.3 7.35L14.7 7.35L14.7 4.98C14.7 4.04 13.93 3.29 13 3.29L12.5 3.29L12.5 4.85C12.5 5.21 12.2 5.51 11.85 5.51C11.49 5.51 11.2 5.21 11.2 4.85L11.2 3.29L8.64 3.29L8.64 4.85C8.64 5.21 8.35 5.51 8 5.51C7.64 5.51 7.35 5.21 7.35 4.85L7.35 3.29L4.79 3.29L4.79 4.85C4.79 5.21 4.49 5.51 4.13 5.51C3.78 5.51 3.48 5.21 3.48 4.85ZM14.7 8.65L1.3 8.65L1.3 15.12C1.3 16.06 2.06 16.82 3 16.82L13 16.82C13.93 16.82 14.7 16.06 14.7 15.12L14.7 8.65ZM3.53 12C3.53 11.25 4.13 10.65 4.88 10.65L7.19 10.65C7.94 10.65 8.55 11.25 8.55 12L8.55 13.32C8.55 14.06 7.94 14.67 7.19 14.67L4.88 14.67C4.13 14.67 3.53 14.06 3.53 13.32L3.53 12ZM4.84 11.96C4.83 11.97 4.83 11.98 4.83 12L4.83 13.32C4.83 13.33 4.83 13.34 4.84 13.35C4.85 13.36 4.86 13.37 4.88 13.37L7.19 13.37C7.21 13.37 7.22 13.36 7.23 13.35C7.24 13.34 7.25 13.33 7.25 13.32L7.25 12C7.25 11.98 7.24 11.97 7.23 11.96C7.22 11.95 7.21 11.95 7.19 11.95L4.88 11.95C4.86 11.95 4.85 11.95 4.84 11.96Z" fill="#505050" fill-opacity="1.000000" fill-rule="evenodd"/>
</svg>
