<svg width="16.000000" height="16.000000" viewBox="0 0 16 16" fill="none" xmlns="http://www.w3.org/2000/svg" xmlns:xlink="http://www.w3.org/1999/xlink">
	<desc>
			Created with Pixso.
	</desc>
	<defs/>
	<path id="Union" d="M3 0C1.34314 0 0 1.34314 0 3L0 13.713C0 14.803 1.26086 15.409 2.11206 14.7281L5.52222 12L13 12C14.6569 12 16 10.6569 16 9L16 3C16 1.34314 14.6569 0 13 0L3 0ZM5.06616 10.7L1.30005 13.713L1.30005 3C1.30005 2.0611 2.06116 1.29999 3 1.29999L13 1.29999C13.9388 1.29999 14.7 2.0611 14.7 3L14.7 9C14.7 9.9389 13.9388 10.7 13 10.7L5.06616 10.7ZM5.14221 3.99353C4.7832 3.99353 4.49219 4.28455 4.49219 4.64355C4.49219 5.00256 4.7832 5.29358 5.14221 5.29358L10.8578 5.29358C11.2168 5.29358 11.5078 5.00256 11.5078 4.64355C11.5078 4.28455 11.2168 3.99353 10.8578 3.99353L5.14221 3.99353ZM5.14221 6.98608C4.7832 6.98608 4.49219 7.2771 4.49219 7.63611C4.49219 7.99512 4.7832 8.28613 5.14221 8.28613L8.79114 8.28613C9.15015 8.28613 9.44116 7.99512 9.44116 7.63611C9.44116 7.2771 9.15015 6.98608 8.79114 6.98608L5.14221 6.98608Z" clip-rule="evenodd" fill="#505050" fill-opacity="1.000000" fill-rule="evenodd"/>
</svg>
