<svg width="20.000000" height="18.000000" viewBox="0 0 20 18" fill="none" xmlns="http://www.w3.org/2000/svg" xmlns:xlink="http://www.w3.org/1999/xlink">
	<desc>
			Created with Pixso.
	</desc>
	<defs/>
	<path id="Union" d="M3.39 4.96C3.09 2.32 5.16 0 7.82 0C10.49 0 12.56 2.32 12.26 4.96L12 7.27C11.75 9.39 9.96 11 7.82 11C5.69 11 3.89 9.39 3.65 7.27L3.39 4.96ZM12.17 11C11.79 11 11.65 10.53 11.89 10.24C11.94 10.18 11.98 10.12 12.03 10.06C12.19 9.84 12.44 9.7 12.71 9.64C13.94 9.41 14.9 8.4 15.05 7.12L15.31 4.82C15.49 3.22 14.46 1.8 12.99 1.4C12.64 1.31 12.31 1.12 12.08 0.84C12.03 0.78 11.98 0.72 11.93 0.66C11.71 0.4 11.83 0 12.17 0C14.83 0 16.9 2.32 16.6 4.96L16.34 7.27C16.1 9.39 14.3 11 12.17 11ZM10.97 4.82L10.7 7.12C10.54 8.59 9.3 9.7 7.82 9.7C6.35 9.7 5.11 8.59 4.94 7.12L4.68 4.82C4.47 2.94 5.93 1.29 7.82 1.29C9.71 1.29 11.18 2.94 10.97 4.82ZM0.11 16.69C0.72 13.95 3.16 12 5.97 12L9.68 12C12.49 12 14.92 13.95 15.53 16.69L15.63 17.14C15.73 17.58 15.4 18 14.95 18L0.7 18C0.25 18 -0.09 17.58 0.01 17.14L0.11 16.69ZM16.72 17.3C16.72 17.64 16.97 18 17.31 18L19.29 18C19.74 18 20.08 17.58 19.98 17.14L19.88 16.69C19.38 14.44 17.64 12.72 15.48 12.18C14.91 12.03 14.59 12.72 14.96 13.19C15.09 13.36 15.27 13.46 15.48 13.53C16.94 14 18.1 15.17 18.54 16.7L17.25 16.7C16.94 16.7 16.72 16.99 16.72 17.3ZM9.68 13.3C11.78 13.3 13.62 14.69 14.19 16.7L1.45 16.7C2.03 14.69 3.86 13.3 5.97 13.3L9.68 13.3Z" fill="#505050" fill-opacity="1.000000" fill-rule="evenodd"/>
</svg>
