<svg width="18.000000" height="18.000000" viewBox="0 0 18 18" fill="none" xmlns="http://www.w3.org/2000/svg" xmlns:xlink="http://www.w3.org/1999/xlink">
	<desc>
			Created with Pixso.
	</desc>
	<defs/>
	<path id="Union" d="M18 15C18 16.65 16.65 18 15 18L3 18C1.34 18 0 16.65 0 15L0 3C0 2.89 0 2.79 0.01 2.69C0.16 1.18 1.44 0 3 0L15 0C16.65 0 18 1.34 18 3L18 15ZM16.7 3L16.7 8.34L9.65 8.34L9.65 1.3L15 1.3C15.93 1.3 16.7 2.06 16.7 3ZM3 1.3C2.06 1.3 1.3 2.06 1.3 3L1.3 8.34L8.35 8.34L8.35 1.3L3 1.3ZM4.86 7.18C4.51 7.18 4.21 6.89 4.21 6.53L4.21 5.68L3.36 5.68C3.01 5.68 2.71 5.39 2.71 5.03C2.71 4.67 3.01 4.38 3.36 4.38L4.21 4.38L4.21 3.53C4.21 3.17 4.51 2.88 4.86 2.88C5.22 2.88 5.51 3.17 5.51 3.53L5.51 4.38L6.36 4.38C6.72 4.38 7.01 4.67 7.01 5.03C7.01 5.39 6.72 5.68 6.36 5.68L5.51 5.68L5.51 6.53C5.51 6.89 5.22 7.18 4.86 7.18ZM11.6 5.03C11.6 4.67 11.89 4.38 12.25 4.38L14.25 4.38C14.61 4.38 14.9 4.67 14.9 5.03C14.9 5.39 14.61 5.68 14.25 5.68L12.25 5.68C11.89 5.68 11.6 5.39 11.6 5.03ZM1.3 15L1.3 9.64L8.35 9.64L8.35 16.7L3 16.7C2.06 16.7 1.3 15.93 1.3 15ZM15 16.7L9.65 16.7L9.65 9.64L16.7 9.64L16.7 15C16.7 15.93 15.93 16.7 15 16.7ZM5.47 14.67C5.72 14.93 6.13 14.93 6.38 14.67C6.64 14.42 6.64 14.01 6.38 13.75L5.78 13.15L6.38 12.55C6.64 12.3 6.64 11.88 6.38 11.63C6.13 11.38 5.72 11.38 5.47 11.63L4.86 12.23L4.26 11.63C4.01 11.38 3.6 11.38 3.34 11.63C3.09 11.88 3.09 12.3 3.34 12.55L3.95 13.15L3.34 13.75C3.09 14.01 3.09 14.42 3.34 14.67C3.6 14.93 4.01 14.93 4.26 14.67L4.86 14.07L5.47 14.67ZM12.25 11.45C11.89 11.45 11.6 11.74 11.6 12.1C11.6 12.46 11.89 12.75 12.25 12.75L14.25 12.75C14.61 12.75 14.9 12.46 14.9 12.1C14.9 11.74 14.61 11.45 14.25 11.45L12.25 11.45ZM12.25 13.49C11.89 13.49 11.6 13.78 11.6 14.14C11.6 14.49 11.89 14.79 12.25 14.79L14.25 14.79C14.61 14.79 14.9 14.49 14.9 14.14C14.9 13.78 14.61 13.49 14.25 13.49L12.25 13.49Z" fill="#5095EC" fill-opacity="1.000000" fill-rule="evenodd"/>
</svg>
