<svg width="18.000000" height="18.000000" viewBox="0 0 18 18" fill="none" xmlns="http://www.w3.org/2000/svg" xmlns:xlink="http://www.w3.org/1999/xlink">
	<desc>
			Created with Pixso.
	</desc>
	<defs/>
	<path id="Union" d="M0 2.55L0 5.64C0 5.66 0 5.67 0 5.68L0 11.68C0.06 12.93 2.24 13.97 4.73 14.22C5.1 14.26 5.41 13.96 5.41 13.59C5.41 13.25 5.14 12.96 4.79 12.93C3.81 12.83 2.78 12.62 2.21 12.35C1.82 12.16 1.57 11.97 1.43 11.82C1.36 11.74 1.32 11.69 1.31 11.65C1.3 11.64 1.3 11.63 1.3 11.62L1.3 10.25C2.17 10.74 3.4 11.09 4.72 11.23C5.09 11.26 5.4 10.97 5.4 10.6C5.4 10.25 5.13 9.96 4.78 9.93C3.78 9.83 2.74 9.61 2.17 9.34C1.42 8.98 1.32 8.69 1.3 8.64L1.3 8.64L1.3 7.28C2.18 7.79 3.43 8.16 4.78 8.29C5.18 8.33 5.49 8.13 5.74 7.81C5.91 7.59 5.8 7.05 5.51 7.04C5.38 7.03 5.24 7.02 5.11 7.01C3.96 6.92 2.81 6.65 2.17 6.34C1.42 5.98 1.32 5.69 1.3 5.64L1.3 5.64L1.3 4.35C2.31 4.92 3.81 5.28 5.5 5.28C7.18 5.28 8.69 4.92 9.69 4.35L9.69 4.92C9.69 5.28 10 5.56 10.35 5.56C10.7 5.55 11 5.27 11 4.92L11 2.55C10.99 2.5 10.98 2.46 10.97 2.41C10.75 1.16 8.73 0.16 6.16 0.01C5.94 0 5.72 0 5.5 0C2.55 0 0.14 1.13 0 2.55ZM6.08 1.31C7.16 1.37 8.09 1.61 8.76 1.92C9.15 2.1 9.4 2.29 9.55 2.45C9.62 2.52 9.66 2.58 9.68 2.62C9.69 2.63 9.69 2.63 9.69 2.64C9.68 2.69 9.56 2.98 8.82 3.34C8.04 3.72 6.86 3.98 5.5 3.98C4.13 3.98 2.95 3.72 2.17 3.34C1.48 3.01 1.33 2.73 1.3 2.65L1.3 2.65C1.31 2.64 1.31 2.63 1.32 2.62C1.34 2.58 1.37 2.52 1.44 2.45C1.59 2.29 1.85 2.1 2.24 1.92C3.03 1.55 4.17 1.3 5.5 1.29C5.69 1.3 5.89 1.3 6.08 1.31ZM6.94 12.42L6.94 15.31C7.02 16.78 9.45 17.97 12.44 17.97C15.43 17.97 17.87 16.78 17.94 15.31L17.94 9.5C17.95 9.44 17.95 9.38 17.95 9.32C17.95 7.86 15.49 6.67 12.45 6.67C9.52 6.67 7.12 7.78 6.96 9.17C6.95 9.21 6.95 9.24 6.94 9.28L6.94 12.33L6.94 12.33C6.94 12.36 6.94 12.39 6.94 12.42ZM9.19 8.61C8.52 8.93 8.32 9.22 8.26 9.34C8.29 9.42 8.45 9.69 9.12 10.02C9.91 10.4 11.08 10.66 12.45 10.66C13.82 10.66 14.99 10.4 15.78 10.02C16.4 9.72 16.58 9.46 16.63 9.36C16.59 9.26 16.4 8.95 15.69 8.61C14.91 8.24 13.76 7.98 12.44 7.98C11.12 7.98 9.97 8.24 9.19 8.61ZM12.45 11.96C10.76 11.96 9.25 11.6 8.24 11.02L8.24 12.33C8.26 12.38 8.38 12.67 9.11 13.03C9.9 13.4 11.07 13.67 12.44 13.67C13.81 13.67 14.98 13.4 15.77 13.03C16.51 12.67 16.62 12.37 16.64 12.33L16.64 12.33L16.64 11.03C15.63 11.6 14.13 11.96 12.45 11.96ZM8.24 14.04C9.25 14.61 10.76 14.97 12.44 14.97C14.13 14.97 15.63 14.61 16.64 14.03L16.64 15.25C16.63 15.31 16.51 15.64 15.72 16.02C14.94 16.4 13.78 16.67 12.44 16.67C11.1 16.67 9.95 16.4 9.17 16.02C8.38 15.64 8.26 15.31 8.24 15.25L8.24 14.04Z" fill="#505050" fill-opacity="1.000000" fill-rule="evenodd"/>
</svg>
