<svg width="15.000000" height="18.000000" viewBox="0 0 15 18" fill="none" xmlns="http://www.w3.org/2000/svg" xmlns:xlink="http://www.w3.org/1999/xlink">
	<desc>
			Created with Pixso.
	</desc>
	<defs/>
	<path id="Union" d="M7 0C4.33 0 2.26 2.32 2.56 4.96L2.82 7.27C3.06 9.39 4.86 11 7 11C9.13 11 10.93 9.39 11.17 7.27L11.43 4.96C11.73 2.32 9.66 0 7 0ZM9.88 7.12L10.14 4.82C10.35 2.94 8.88 1.29 7 1.29C5.11 1.29 3.64 2.94 3.85 4.82L4.11 7.12C4.28 8.59 5.52 9.7 7 9.7C8.47 9.7 9.71 8.59 9.88 7.12ZM5.14 12C2.33 12 -0.11 13.95 -0.72 16.69L-0.82 17.14C-0.91 17.58 -0.58 18 -0.13 18L14.12 18C14.57 18 14.9 17.58 14.81 17.14L14.71 16.69C14.1 13.95 11.66 12 8.85 12L5.14 12ZM13.37 16.7C12.79 14.69 10.95 13.3 8.85 13.3L5.14 13.3C3.04 13.3 1.2 14.69 0.62 16.7L13.37 16.7Z" fill="#505050" fill-opacity="1.000000" fill-rule="evenodd"/>
</svg>
