<svg width="19.000000" height="20.000000" viewBox="0 0 19 20" fill="none" xmlns="http://www.w3.org/2000/svg" xmlns:xlink="http://www.w3.org/1999/xlink">
	<desc>
			Created with Pixso.
	</desc>
	<defs/>
	<path id="Union" d="M16.45 0.34C15.99 -0.12 15.24 -0.12 14.77 0.34L12.58 2.54C12.12 3 12.12 3.75 12.58 4.22L14.77 6.41C15.24 6.87 15.99 6.87 16.45 6.41L18.65 4.22C19.11 3.75 19.11 3 18.65 2.54L16.45 0.34ZM0.7 0.38C-0.02 0.38 -0.6 0.96 -0.6 1.68L-0.6 5.08C-0.6 5.79 -0.02 6.38 0.7 6.38L4.1 6.38C4.82 6.38 5.4 5.79 5.4 5.08L5.4 1.68C5.4 0.96 4.82 0.38 4.1 0.38L0.7 0.38ZM17.65 3.38L15.61 1.34L13.58 3.38L15.61 5.41L17.65 3.38ZM0.7 1.68L4.1 1.68L4.1 5.08L0.7 5.08L0.7 1.68ZM7.35 2.73C6.99 2.73 6.7 3.02 6.7 3.38C6.7 3.74 6.99 4.03 7.35 4.03L10.28 4.03C10.64 4.03 10.93 3.74 10.93 3.38C10.93 3.02 10.64 2.73 10.28 2.73L7.35 2.73ZM7.22 14.49L8.73 15.95L5.41 15.95C4.11 15.95 3.06 14.9 3.06 13.6L3.06 8.33C3.06 7.97 2.77 7.68 2.41 7.68C2.05 7.68 1.76 7.97 1.76 8.33L1.76 13.6C1.76 15.62 3.39 17.25 5.41 17.25L8.73 17.25L7.23 18.71C6.98 18.96 6.98 19.37 7.23 19.63C7.48 19.88 7.9 19.88 8.15 19.63L11.12 17.06C11.37 16.81 11.37 16.4 11.12 16.14L8.14 13.57C7.89 13.32 7.48 13.32 7.22 13.57C6.97 13.83 6.97 14.24 7.22 14.49ZM16.26 8.7C16.26 8.34 15.97 8.05 15.61 8.05C15.25 8.05 14.96 8.34 14.96 8.7L14.96 11.67C14.96 12.03 15.25 12.32 15.61 12.32C15.97 12.32 16.26 12.03 16.26 11.67L16.26 8.7ZM12.61 16.62C12.61 14.96 13.96 13.62 15.61 13.62C17.27 13.62 18.61 14.96 18.61 16.62C18.61 18.28 17.27 19.62 15.61 19.62C13.96 19.62 12.61 18.28 12.61 16.62ZM13.91 16.62C13.91 15.68 14.67 14.92 15.61 14.92C16.55 14.92 17.31 15.68 17.31 16.62C17.31 17.56 16.55 18.32 15.61 18.32C14.67 18.32 13.91 17.56 13.91 16.62Z" fill="#505050" fill-opacity="1.000000" fill-rule="evenodd"/>
</svg>
