<svg width="17.000000" height="17.000000" viewBox="0 0 17 17" fill="none" xmlns="http://www.w3.org/2000/svg" xmlns:xlink="http://www.w3.org/1999/xlink">
	<desc>
			Created with Pixso.
	</desc>
	<defs/>
	<path id="Union" d="M5.22 0.53C5.34 -0.35 6.09 -1 6.98 -1L8.89 -1C9.77 -1 10.51 -0.36 10.64 0.5C10.82 1.62 12.01 2.29 13.07 1.86C13.89 1.53 14.83 1.85 15.28 2.62L16.23 4.27C16.67 5.03 16.49 6 15.81 6.54C14.93 7.25 14.94 8.62 15.85 9.33C16.55 9.87 16.74 10.85 16.29 11.61L15.34 13.27C14.9 14.03 13.98 14.35 13.16 14.04C12.05 13.61 10.83 14.31 10.64 15.49C10.51 16.35 9.77 16.99 8.89 16.99L6.98 16.99C6.09 16.99 5.34 16.34 5.22 15.46C5.06 14.33 3.89 13.63 2.83 14.04C2.01 14.35 1.09 14.03 0.65 13.27L-0.3 11.61C-0.75 10.85 -0.56 9.87 0.14 9.33C1.05 8.62 1.06 7.25 0.18 6.54C-0.5 6 -0.68 5.03 -0.24 4.27L0.71 2.62C1.16 1.85 2.1 1.53 2.92 1.86C3.93 2.27 5.07 1.62 5.22 0.53ZM6.98 0.3C6.74 0.3 6.54 0.47 6.51 0.71C6.24 2.64 4.23 3.8 2.43 3.06C2.21 2.98 1.96 3.06 1.84 3.27L0.88 4.92C0.76 5.13 0.81 5.38 1 5.53C2.54 6.78 2.5 9.14 0.94 10.35C0.75 10.5 0.7 10.76 0.82 10.96L1.78 12.62C1.9 12.82 2.14 12.91 2.36 12.83C4.21 12.11 6.24 13.33 6.51 15.28C6.54 15.52 6.74 15.69 6.98 15.69L8.89 15.69C9.13 15.69 9.32 15.52 9.36 15.29C9.67 13.29 11.75 12.1 13.63 12.83C13.85 12.91 14.09 12.82 14.21 12.62L15.17 10.96C15.29 10.76 15.24 10.5 15.05 10.35C13.49 9.14 13.45 6.78 14.99 5.53C15.18 5.38 15.23 5.13 15.11 4.92L14.15 3.27C14.03 3.06 13.78 2.98 13.56 3.06C11.74 3.81 9.66 2.66 9.36 0.7C9.32 0.47 9.13 0.3 8.89 0.3L6.98 0.3ZM7.99 12C10.2 12 11.99 10.2 11.99 8C11.99 5.79 10.2 4 7.99 4C5.79 4 3.99 5.79 3.99 8C3.99 10.2 5.79 12 7.99 12ZM7.99 10.7C9.49 10.7 10.7 9.49 10.7 8C10.7 6.5 9.49 5.29 7.99 5.29C6.5 5.29 5.29 6.5 5.29 8C5.29 9.49 6.5 10.7 7.99 10.7Z" fill="#505050" fill-opacity="1.000000" fill-rule="evenodd"/>
</svg>
