<svg width="14.000000" height="18.000000" viewBox="0 0 14 18" fill="none" xmlns="http://www.w3.org/2000/svg" xmlns:xlink="http://www.w3.org/1999/xlink">
	<desc>
			Created with Pixso.
	</desc>
	<defs/>
	<path id="Union" d="M0 1.59L0 15.39C0 16.65 1.39 17.41 2.45 16.74L4.06 15.72C4.27 15.59 4.54 15.6 4.73 15.75L6.01 16.69C6.58 17.1 7.34 17.1 7.91 16.69L9.2 15.74C9.39 15.6 9.66 15.59 9.87 15.71L11.54 16.75C12.61 17.41 13.99 16.65 13.99 15.39L14 1.59C14 0.16 12.83 -1 11.39 -1L2.6 -1C1.17 -1 0 0.16 0 1.59ZM12.7 1.59L12.69 15.39C12.69 15.63 12.43 15.77 12.23 15.65L10.55 14.61C9.89 14.2 9.05 14.23 8.43 14.69L7.14 15.64C7.03 15.72 6.89 15.72 6.78 15.64L5.5 14.7C4.87 14.24 4.02 14.21 3.36 14.63L1.76 15.64C1.56 15.77 1.3 15.62 1.3 15.39L1.3 1.6C1.3 0.88 1.89 0.3 2.6 0.3L11.39 0.3C12.11 0.3 12.7 0.88 12.7 1.59ZM3 3.64C3 3.28 3.29 2.99 3.65 2.99L10.35 2.99C10.71 2.99 11 3.28 11 3.64C11 4 10.71 4.29 10.35 4.29L3.65 4.29C3.29 4.29 3 4 3 3.64ZM3.65 5.99C3.29 5.99 3 6.28 3 6.64C3 7 3.29 7.29 3.65 7.29L10.35 7.29C10.71 7.29 11 7 11 6.64C11 6.28 10.71 5.99 10.35 5.99L3.65 5.99ZM3 9.64C3 9.28 3.29 8.99 3.65 8.99L6.85 8.99C7.21 8.99 7.5 9.28 7.5 9.64C7.5 10 7.21 10.29 6.85 10.29L3.65 10.29C3.29 10.29 3 10 3 9.64Z" fill="#5095EC" fill-opacity="1.000000" fill-rule="evenodd"/>
</svg>
