<svg width="25.000000" height="24.000000" viewBox="0 0 25 24" fill="none" xmlns="http://www.w3.org/2000/svg" xmlns:xlink="http://www.w3.org/1999/xlink">
	<desc>
			Created with Pixso.
	</desc>
	<defs>
		<filter id="filter_3_46_dd" x="-0.716309" y="-0.309082" width="25.432861" height="24.306274" filterUnits="userSpaceOnUse" color-interpolation-filters="sRGB">
			<feFlood flood-opacity="0" result="BackgroundImageFix"/>
			<feColorMatrix in="SourceAlpha" type="matrix" values="0 0 0 0 0 0 0 0 0 0 0 0 0 0 0 0 0 0 127 0" result="hardAlpha"/>
			<feOffset dx="0" dy="4"/>
			<feGaussianBlur stdDeviation="1.33333"/>
			<feComposite in2="hardAlpha" operator="out" k2="-1" k3="1"/>
			<feColorMatrix type="matrix" values="0 0 0 0 0 0 0 0 0 0 0 0 0 0 0 0 0 0 0.25 0"/>
			<feBlend mode="normal" in2="BackgroundImageFix" result="effect_dropShadow_1"/>
			<feBlend mode="normal" in="SourceGraphic" in2="effect_dropShadow_1" result="shape"/>
		</filter>
	</defs>
	<g filter="url(#filter_3_46_dd)">
		<path id="Union" d="M17.07 3.69C18.18 3.69 19.07 2.79 19.07 1.69C19.07 0.58 18.18 -0.31 17.07 -0.31C15.97 -0.31 15.07 0.58 15.07 1.69C15.07 1.98 15.14 2.26 15.25 2.51L13.01 4.59C12.71 4.41 12.37 4.31 12 4.31C11.42 4.31 10.91 4.55 10.55 4.93L8.89 4.04C8.91 3.93 8.92 3.81 8.92 3.69C8.92 2.58 8.02 1.69 6.92 1.69C5.81 1.69 4.92 2.58 4.92 3.69C4.92 4.79 5.81 5.69 6.92 5.69C7.43 5.69 7.9 5.49 8.25 5.18L10 6.12C10 6.18 10 6.25 10 6.31C10 7.42 10.89 8.31 12 8.31C13.1 8.31 14 7.42 14 6.31C14 6.05 13.95 5.8 13.86 5.58L16.14 3.46C16.42 3.6 16.74 3.69 17.07 3.69ZM17.07 2.39C17.46 2.39 17.77 2.07 17.77 1.69C17.77 1.3 17.46 0.99 17.07 0.99C16.69 0.99 16.37 1.3 16.37 1.69C16.37 2.07 16.69 2.39 17.07 2.39ZM6.92 4.39C7.3 4.39 7.62 4.07 7.62 3.69C7.62 3.3 7.3 2.99 6.92 2.99C6.53 2.99 6.22 3.3 6.22 3.69C6.22 4.07 6.53 4.39 6.92 4.39ZM19.02 6.99L19.02 14.69L20.06 14.69C20.42 14.69 20.71 14.98 20.71 15.34C20.71 15.7 20.42 15.99 20.06 15.99L3.93 15.99C3.57 15.99 3.28 15.7 3.28 15.34C3.28 14.98 3.57 14.69 3.93 14.69L4.97 14.69L4.97 8.99C4.97 7.91 5.84 7.04 6.92 7.04C7.99 7.04 8.87 7.91 8.87 8.99L8.87 14.69L10.05 14.69L10.05 11.55C10.05 10.47 10.92 9.6 12 9.6C13.07 9.6 13.95 10.47 13.95 11.55L13.95 14.69L15.12 14.69L15.12 6.99C15.12 5.91 16 5.04 17.07 5.04C18.15 5.04 19.02 5.91 19.02 6.99ZM12.7 6.31C12.7 6.7 12.38 7.01 12 7.01C11.61 7.01 11.3 6.7 11.3 6.31C11.3 5.92 11.61 5.61 12 5.61C12.38 5.61 12.7 5.92 12.7 6.31ZM17.72 6.99L17.72 14.69L16.42 14.69L16.42 6.99C16.42 6.63 16.71 6.34 17.07 6.34C17.43 6.34 17.72 6.63 17.72 6.99ZM6.27 8.99L6.27 14.69L7.57 14.69L7.57 8.99C7.57 8.63 7.28 8.34 6.92 8.34C6.56 8.34 6.27 8.63 6.27 8.99ZM12.65 11.55L12.65 14.69L11.35 14.69L11.35 11.55C11.35 11.19 11.64 10.9 12 10.9C12.35 10.9 12.65 11.19 12.65 11.55Z" fill="#5095EC" fill-opacity="1.000000" fill-rule="evenodd"/>
	</g>
</svg>
