<svg width="19.000000" height="14.000000" viewBox="0 0 19 14" fill="none" xmlns="http://www.w3.org/2000/svg" xmlns:xlink="http://www.w3.org/1999/xlink">
	<desc>
			Created with Pixso.
	</desc>
	<defs/>
	<path id="Union" d="M-0.57 5.68C0.86 3.65 4.11 0 9 0C13.88 0 17.13 3.65 18.56 5.68C19.12 6.48 19.12 7.51 18.56 8.31C17.13 10.34 13.88 14 9 14C4.11 14 0.86 10.34 -0.57 8.31C-1.13 7.51 -1.13 6.48 -0.57 5.68ZM3.3 7C3.3 10.14 5.85 12.7 9 12.7C12.14 12.7 14.7 10.14 14.7 7C14.7 3.85 12.14 1.29 9 1.29C5.85 1.29 3.3 3.85 3.3 7ZM17.5 6.43C16.97 5.69 16.23 4.77 15.29 3.92C15.74 4.85 16 5.89 16 7C16 8.1 15.74 9.14 15.29 10.07C16.23 9.22 16.97 8.3 17.5 7.56C17.74 7.21 17.74 6.78 17.5 6.43ZM0.49 6.43C1.02 5.69 1.76 4.77 2.7 3.92C2.25 4.85 2 5.89 2 7C2 8.1 2.25 9.14 2.7 10.07C1.76 9.22 1.02 8.3 0.49 7.56C0.25 7.21 0.25 6.78 0.49 6.43ZM9 4.7C9 4.31 8.68 3.99 8.3 4.08C6.98 4.39 6 5.58 6 7C6 8.65 7.34 10 9 10C10.41 10 11.6 9.01 11.91 7.69C12 7.31 11.68 7 11.3 7L10.3 7C9.58 7 9 6.41 9 5.7L9 4.7Z" fill="#505050" fill-opacity="1.000000" fill-rule="evenodd"/>
</svg>
